<svg xmlns="http://www.w3.org/2000/svg" viewBox="0 0 280 200" fill="none">
  <!-- envelope/bell hybrid -->
  <g stroke="#0B6B5F" stroke-width="2" stroke-linecap="round" stroke-linejoin="round" fill="none">
    <path d="M100 80 C 100 62, 112 50, 140 50 C 168 50, 180 62, 180 80 L 180 120 L 190 135 L 90 135 L 100 120 Z" fill="#FDFBF6"/>
    <path d="M128 145 C 128 151, 133 155, 140 155 C 147 155, 152 151, 152 145"/>
  </g>
  <!-- checkmark inside (all caught up) -->
  <circle cx="140" cy="90" r="18" fill="#E8F3F1" stroke="#0B6B5F" stroke-width="1.5"/>
  <path d="M131 90 L138 97 L150 84" stroke="#B38B3E" stroke-width="2.5" stroke-linecap="round" stroke-linejoin="round" fill="none"/>
  
  <!-- peaceful dots floating around -->
  <circle cx="75" cy="70" r="2" fill="#B38B3E" opacity="0.3"/>
  <circle cx="205" cy="85" r="2" fill="#B38B3E" opacity="0.3"/>
  <circle cx="200" cy="140" r="1.5" fill="#B38B3E" opacity="0.4"/>
  <circle cx="85" cy="125" r="1.5" fill="#B38B3E" opacity="0.4"/>
  <circle cx="65" cy="100" r="1" fill="#B38B3E" opacity="0.5"/>
  <circle cx="215" cy="110" r="1" fill="#B38B3E" opacity="0.5"/>
</svg>
